<?xml version="1.0" encoding="iso-8859-1"?>
<!-- Generator: Adobe Illustrator 16.0.0, SVG Export Plug-In . SVG Version: 6.00 Build 0)  -->
<!DOCTYPE svg PUBLIC "-//W3C//DTD SVG 1.1//EN" "http://www.w3.org/Graphics/SVG/1.1/DTD/svg11.dtd">
<svg version="1.1" id="Capa_1" xmlns="http://www.w3.org/2000/svg" xmlns:xlink="http://www.w3.org/1999/xlink" x="0px" y="0px"
	 width="576.219px" height="576.219px" viewBox="0 0 576.219 576.219" style="enable-background:new 0 0 576.219 576.219;"
	 xml:space="preserve">
<g>
	<g>
		<path d="M259.422,68.374h57.375c2.639,0,4.781-2.142,4.781-4.781c0-2.639-2.143-4.781-4.781-4.781h-57.375
			c-2.64,0-4.781,2.142-4.781,4.781C254.641,66.232,256.782,68.374,259.422,68.374z"/>
		<path d="M316.797,77.937h-28.688c-2.639,0-4.78,2.142-4.78,4.781c0,2.639,2.142,4.781,4.78,4.781h28.688
			c2.639,0,4.781-2.142,4.781-4.781C321.578,80.079,319.437,77.937,316.797,77.937z"/>
		<path d="M259.422,106.624h57.375c2.639,0,4.781-2.142,4.781-4.781c0-2.639-2.143-4.781-4.781-4.781h-57.375
			c-2.64,0-4.781,2.142-4.781,4.781C254.641,104.482,256.782,106.624,259.422,106.624z"/>
		<path d="M316.797,116.187h-28.688c-2.639,0-4.78,2.142-4.78,4.781c0,2.639,2.142,4.781,4.78,4.781h28.688
			c2.639,0,4.781-2.142,4.781-4.781C321.578,118.329,319.437,116.187,316.797,116.187z"/>
		<path d="M259.422,144.874h57.375c2.639,0,4.781-2.142,4.781-4.781c0-2.639-2.142-4.781-4.781-4.781h-57.375
			c-2.64,0-4.781,2.142-4.781,4.781C254.641,142.732,256.782,144.874,259.422,144.874z"/>
		<path d="M316.797,154.437h-28.688c-2.639,0-4.78,2.142-4.78,4.781c0,2.639,2.142,4.781,4.78,4.781h28.688
			c2.639,0,4.781-2.142,4.781-4.781C321.578,156.579,319.437,154.437,316.797,154.437z"/>
		<path d="M259.422,183.124h57.375c2.639,0,4.781-2.142,4.781-4.781c0-2.639-2.143-4.781-4.781-4.781h-57.375
			c-2.64,0-4.781,2.142-4.781,4.781C254.641,180.982,256.782,183.124,259.422,183.124z"/>
		<path d="M316.797,192.687h-28.688c-2.639,0-4.78,2.142-4.78,4.781c0,2.639,2.142,4.781,4.78,4.781h28.688
			c2.639,0,4.781-2.142,4.781-4.781C321.578,194.829,319.437,192.687,316.797,192.687z"/>
		<path d="M259.422,221.374h57.375c2.639,0,4.781-2.142,4.781-4.781c0-2.639-2.143-4.781-4.781-4.781h-57.375
			c-2.64,0-4.781,2.142-4.781,4.781C254.641,219.232,256.782,221.374,259.422,221.374z"/>
		<path d="M316.797,230.937h-28.688c-2.639,0-4.78,2.142-4.78,4.781c0,2.639,2.142,4.781,4.78,4.781h28.688
			c2.639,0,4.781-2.142,4.781-4.781C321.578,233.079,319.437,230.937,316.797,230.937z"/>
		<path d="M259.422,259.624h57.375c2.639,0,4.781-2.142,4.781-4.781c0-2.639-2.143-4.781-4.781-4.781h-57.375
			c-2.64,0-4.781,2.142-4.781,4.781C254.641,257.482,256.782,259.624,259.422,259.624z"/>
		<path d="M316.797,269.187h-28.688c-2.639,0-4.78,2.142-4.78,4.781c0,2.639,2.142,4.781,4.78,4.781h28.688
			c2.639,0,4.781-2.142,4.781-4.781C321.578,271.329,319.437,269.187,316.797,269.187z"/>
		<path d="M259.422,297.874h57.375c2.639,0,4.781-2.142,4.781-4.78c0-2.64-2.142-4.781-4.781-4.781h-57.375
			c-2.64,0-4.781,2.142-4.781,4.781C254.641,295.732,256.782,297.874,259.422,297.874z"/>
		<path d="M316.797,307.438h-28.688c-2.639,0-4.78,2.142-4.78,4.781c0,2.639,2.142,4.78,4.78,4.78h28.688
			c2.639,0,4.781-2.142,4.781-4.78C321.578,309.579,319.437,307.438,316.797,307.438z"/>
		<path d="M259.422,336.124h57.375c2.639,0,4.781-2.142,4.781-4.78c0-2.64-2.143-4.781-4.781-4.781h-57.375
			c-2.64,0-4.781,2.142-4.781,4.781C254.641,333.982,256.782,336.124,259.422,336.124z"/>
		<path d="M316.797,345.688h-28.688c-2.639,0-4.78,2.142-4.78,4.781c0,2.639,2.142,4.78,4.78,4.78h28.688
			c2.639,0,4.781-2.142,4.781-4.78C321.578,347.829,319.437,345.688,316.797,345.688z"/>
		<path d="M259.422,374.374h57.375c2.639,0,4.781-2.142,4.781-4.78c0-2.64-2.143-4.781-4.781-4.781h-57.375
			c-2.64,0-4.781,2.142-4.781,4.781C254.641,372.232,256.782,374.374,259.422,374.374z"/>
		<path d="M321.578,406.949V389.6c-36.261,22.711-37.455-23.906-66.938,0v17.35c-23.973,12.234-40.439,37.154-40.439,65.863
			c0,40.752,33.155,73.906,73.908,73.906s73.908-33.154,73.908-73.906C362.017,444.104,345.552,419.184,321.578,406.949z
			 M318.681,482.906c-10.318,0-18.685-8.367-18.685-18.686s8.357-18.686,18.685-18.686c10.318,0,18.685,8.367,18.685,18.686
			S328.999,482.906,318.681,482.906z"/>
		<path d="M350.266,390.225V46.349C350.266,17.757,328.894,0,294.487,0h-10.355c-34.798,0-58.179,18.628-58.179,46.349v343.875
			c-25.036,18.889-41.251,48.879-41.251,82.588c0,57.018,46.389,103.406,103.408,103.406c57.021,0,103.406-46.389,103.406-103.406
			C391.517,439.104,375.303,409.113,350.266,390.225z M288.109,566.219c-51.588,0-93.408-41.82-93.408-93.406
			c0-27.719,12.077-52.611,31.252-69.719c3.019-2.693,6.211-5.193,9.562-7.482V46.349c0-27.157,26.182-36.787,48.606-36.787h10.355
			c10.844,0,46.225,2.649,46.225,36.787v349.264c3.352,2.287,6.545,4.789,9.562,7.482c19.174,17.105,31.251,42,31.251,69.717
			C381.517,524.4,339.696,566.219,288.109,566.219z"/>
	</g>
</g>
<g>
</g>
<g>
</g>
<g>
</g>
<g>
</g>
<g>
</g>
<g>
</g>
<g>
</g>
<g>
</g>
<g>
</g>
<g>
</g>
<g>
</g>
<g>
</g>
<g>
</g>
<g>
</g>
<g>
</g>
</svg>
